<svg xmlns="http://www.w3.org/2000/svg" viewBox="0 0 420 520">
  <defs>
    <linearGradient id="gionSky" x1="0" x2="0" y1="0" y2="1">
      <stop offset="0%" stop-color="#1e2a56" />
      <stop offset="70%" stop-color="#4b5a9c" />
    </linearGradient>
    <linearGradient id="gionWater" x1="0" x2="1" y1="0" y2="0">
      <stop offset="0%" stop-color="#3c4f9f" />
      <stop offset="100%" stop-color="#6c82ff" />
    </linearGradient>
  </defs>
  <rect width="420" height="520" fill="url(#gionSky)" />
  <path
    d="M0 360 C120 320 200 320 420 360 L420 520 L0 520 Z"
    fill="url(#gionWater)"
    opacity="0.9"
  />
  <g fill="#ffffff" opacity="0.4">
    <circle cx="90" cy="120" r="5" />
    <circle cx="160" cy="80" r="4" />
    <circle cx="210" cy="110" r="6" />
    <circle cx="300" cy="90" r="5" />
  </g>
  <path
    d="M 70 320 L 120 150 H 140 L 190 320 Z"
    fill="#f8d7a2"
    opacity="0.9"
  />
  <path
    d="M 230 320 L 270 150 H 290 L 340 320 Z"
    fill="#f7a1b7"
    opacity="0.9"
  />
  <path
    d="M 0 300 C 120 250 180 230 230 240 C 280 250 340 280 420 260 L 420 360 C 360 340 300 330 230 340 C 160 350 80 340 0 360 Z"
    fill="#ffffff"
    opacity="0.12"
  />
  <text
    x="210"
    y="420"
    font-family="'Inter', 'Noto Sans JP', sans-serif"
    font-size="24"
    fill="#f0f4ff"
    text-anchor="middle"
  >
    白川沿いの夕暮れ散歩
  </text>
</svg>
